<svg version="1.1" id="Layer_1" xmlns="http://www.w3.org/2000/svg" xmlns:xlink="http://www.w3.org/1999/xlink" x="0px" y="0px"
	 width="100%" viewBox="0 0 570 570" enable-background="new 0 0 570 570" xml:space="preserve">
<path fill="#F22A46" opacity="1.000000" stroke="none" 
	d="
M378.000000,571.000000 
	C252.000000,571.000000 126.500000,571.000000 1.000000,571.000000 
	C1.000000,381.000000 1.000000,191.000000 1.000000,1.000000 
	C191.000000,1.000000 381.000000,1.000000 571.000000,1.000000 
	C571.000000,191.000000 571.000000,381.000000 571.000000,571.000000 
	C506.833344,571.000000 442.666656,571.000000 378.000000,571.000000 
M334.008179,480.524994 
	C337.457947,456.403656 340.907715,432.282318 344.467346,407.392761 
	C368.659363,421.594025 391.995758,435.293060 416.566620,449.716736 
	C407.969513,422.525574 399.786224,396.643158 391.357117,369.983307 
	C419.304718,372.295410 446.246185,374.524292 474.733521,376.881042 
	C455.135437,356.075928 436.519135,336.313080 417.391785,316.007660 
	C443.567017,305.948853 468.885132,296.219391 495.491516,285.994873 
	C468.691803,275.696411 443.355011,265.960114 417.396454,255.984894 
	C436.648163,235.546616 455.200226,215.851135 474.719482,195.128845 
	C446.177063,197.479721 419.166565,199.704422 391.346405,201.995804 
	C399.843109,175.144852 408.000427,149.366394 416.575836,122.266785 
	C391.906067,136.752380 368.482605,150.506165 344.459839,164.611862 
	C340.477234,136.784286 336.644073,110.001045 332.606537,81.789696 
	C316.751984,105.424057 301.626648,127.971382 286.004822,151.258789 
	C270.334839,127.899452 255.209671,105.352303 239.397049,81.780357 
	C235.330872,110.122780 231.472946,137.013657 227.517303,164.585632 
	C203.319839,150.365799 180.012787,136.669205 155.407852,122.209915 
	C164.045868,149.531494 172.223434,175.396713 180.622574,201.962753 
	C152.640823,199.657364 125.717850,197.439194 97.276619,195.095947 
	C116.916962,215.953735 135.534012,235.724792 154.649612,256.025299 
	C128.575699,266.044495 103.384315,275.724579 78.192917,285.404633 
	C78.211380,285.810181 78.229836,286.215729 78.248299,286.621277 
	C103.458969,296.307159 128.669647,305.993042 154.659271,315.978180 
	C135.489578,336.328186 116.862289,356.102417 97.265854,376.905457 
	C125.783440,374.556824 152.740555,372.336731 180.624100,370.040344 
	C172.205231,396.665253 164.019287,422.553558 155.409180,449.783295 
	C180.124619,435.267151 203.547913,421.509918 227.541077,407.417999 
	C231.522430,435.237091 235.355316,462.018677 239.392563,490.228271 
	C255.259521,466.570587 270.384583,444.019073 286.002045,420.733429 
	C301.680237,444.098663 316.806854,466.641937 332.521545,490.061584 
	C333.135498,486.283875 333.534637,483.828094 334.008179,480.524994 
z"/>
<path fill="#FFEE4D" opacity="1.000000" stroke="none" 
	d="
M333.970947,480.948639 
	C333.534637,483.828094 333.135498,486.283875 332.521545,490.061584 
	C316.806854,466.641937 301.680237,444.098663 286.002045,420.733429 
	C270.384583,444.019073 255.259521,466.570587 239.392563,490.228271 
	C235.355316,462.018677 231.522430,435.237091 227.541077,407.417999 
	C203.547913,421.509918 180.124619,435.267151 155.409180,449.783295 
	C164.019287,422.553558 172.205231,396.665253 180.624100,370.040344 
	C152.740555,372.336731 125.783440,374.556824 97.265854,376.905457 
	C116.862289,356.102417 135.489578,336.328186 154.659271,315.978180 
	C128.669647,305.993042 103.458969,296.307159 78.248299,286.621277 
	C78.229836,286.215729 78.211380,285.810181 78.192917,285.404633 
	C103.384315,275.724579 128.575699,266.044495 154.649612,256.025299 
	C135.534012,235.724792 116.916962,215.953735 97.276619,195.095947 
	C125.717850,197.439194 152.640823,199.657364 180.622574,201.962753 
	C172.223434,175.396713 164.045868,149.531494 155.407852,122.209915 
	C180.012787,136.669205 203.319839,150.365799 227.517303,164.585632 
	C231.472946,137.013657 235.330872,110.122780 239.397049,81.780357 
	C255.209671,105.352303 270.334839,127.899452 286.004822,151.258789 
	C301.626648,127.971382 316.751984,105.424057 332.606537,81.789696 
	C336.644073,110.001045 340.477234,136.784286 344.459839,164.611862 
	C368.482605,150.506165 391.906067,136.752380 416.575836,122.266785 
	C408.000427,149.366394 399.843109,175.144852 391.346405,201.995804 
	C419.166565,199.704422 446.177063,197.479721 474.719482,195.128845 
	C455.200226,215.851135 436.648163,235.546616 417.396454,255.984894 
	C443.355011,265.960114 468.691803,275.696411 495.491516,285.994873 
	C468.885132,296.219391 443.567017,305.948853 417.391785,316.007660 
	C436.519135,336.313080 455.135437,356.075928 474.733521,376.881042 
	C446.246185,374.524292 419.304718,372.295410 391.357117,369.983307 
	C399.786224,396.643158 407.969513,422.525574 416.566620,449.716736 
	C391.995758,435.293060 368.659363,421.594025 344.467346,407.392761 
	C340.907715,432.282318 337.457947,456.403656 333.970947,480.948639 
M412.828705,327.223358 
	C419.593170,305.859222 420.941589,284.168945 417.126038,262.075897 
	C404.476288,188.830658 330.736206,139.382355 258.235443,155.613892 
	C189.415192,171.021423 145.613968,233.031448 153.883881,303.345856 
	C161.052292,364.294830 212.838730,413.954834 274.344635,418.860291 
	C336.517761,423.818970 392.449249,387.035736 412.828705,327.223358 
z"/>
<path fill="#F22B46" opacity="1.000000" stroke="none" 
	d="
M412.689301,327.596619 
	C392.449249,387.035736 336.517761,423.818970 274.344635,418.860291 
	C212.838730,413.954834 161.052292,364.294830 153.883881,303.345856 
	C145.613968,233.031448 189.415192,171.021423 258.235443,155.613892 
	C330.736206,139.382355 404.476288,188.830658 417.126038,262.075897 
	C420.941589,284.168945 419.593170,305.859222 412.689301,327.596619 
M236.322067,204.765182 
	C209.613434,221.831802 193.860306,246.074066 191.243088,277.639709 
	C186.101288,339.653259 238.216370,388.456665 299.884216,380.140930 
	C352.976044,372.981598 390.275787,320.356384 379.474915,267.848450 
	C366.031586,202.493866 295.350128,171.014938 236.322067,204.765182 
z"/>
<path fill="#FFEF4D" opacity="1.000000" stroke="none" 
	d="
M236.626648,204.564941 
	C295.350128,171.014938 366.031586,202.493866 379.474915,267.848450 
	C390.275787,320.356384 352.976044,372.981598 299.884216,380.140930 
	C238.216370,388.456665 186.101288,339.653259 191.243088,277.639709 
	C193.860306,246.074066 209.613434,221.831802 236.626648,204.564941 
z"/>
</svg>