<svg xmlns="http://www.w3.org/2000/svg" xmlns:xlink="http://www.w3.org/1999/xlink" version="1.1" width="256" height="256" viewBox="0 0 256 256" xml:space="preserve">
<g style="stroke: none; stroke-width: 0; stroke-dasharray: none; stroke-linecap: butt; stroke-linejoin: miter; stroke-miterlimit: 10; fill: none; fill-rule: nonzero; opacity: 1;" transform="translate(1.4065934065934016 1.4065934065934016) scale(2.81 2.81)">
	<path d="M 45 0 L 45 0 C 20.147 0 0 20.147 0 45 v 0 c 0 24.853 20.147 45 45 45 h 0 c 24.853 0 45 -20.147 45 -45 v 0 C 90 20.147 69.853 0 45 0 z" style="stroke: none; stroke-width: 1; stroke-dasharray: none; stroke-linecap: butt; stroke-linejoin: miter; stroke-miterlimit: 10; fill: rgb(238,28,37); fill-rule: nonzero; opacity: 1;" transform=" matrix(1 0 0 1 0 0) " stroke-linecap="round"/>
	<path d="M 51.39 17.186 c -2.36 0.756 -3.661 3.281 -2.905 5.641 c 0.122 0.38 0.293 0.741 0.51 1.075 c 2.184 3.363 1.228 7.859 -2.135 10.042 c -0.357 0.232 -0.734 0.432 -1.126 0.598 c -3.16 1.336 -4.638 4.981 -3.302 8.141 c 0.354 0.837 0.888 1.587 1.563 2.195 c -4.856 -3.455 -6.073 -10.151 -2.743 -15.094 c -0.062 -0.053 -0.122 -0.109 -0.178 -0.168 c -3.406 5.017 -2.214 11.832 2.693 15.396 c -7.444 -2.982 -11.062 -11.433 -8.08 -18.877 C 38.2 19.861 44.711 16.15 51.39 17.186" style="stroke: none; stroke-width: 1; stroke-dasharray: none; stroke-linecap: butt; stroke-linejoin: miter; stroke-miterlimit: 10; fill: rgb(255,255,255); fill-rule: nonzero; opacity: 1;" transform=" matrix(1 0 0 1 0 0) " stroke-linecap="round"/>
	<path d="M 73.341 43.161 c -1.448 -2.011 -4.252 -2.468 -6.263 -1.02 c -0.323 0.233 -0.614 0.508 -0.865 0.817 c -2.523 3.116 -7.095 3.596 -10.211 1.073 c -0.331 -0.268 -0.638 -0.564 -0.916 -0.886 c -2.247 -2.592 -6.17 -2.872 -8.763 -0.624 c -0.687 0.596 -1.235 1.335 -1.605 2.165 c 1.785 -5.686 7.778 -8.912 13.507 -7.273 c 0.031 -0.076 0.067 -0.149 0.105 -0.222 c -5.824 -1.689 -11.937 1.551 -13.81 7.318 c 0.535 -8.001 7.455 -14.053 15.456 -13.518 C 66.721 31.444 72.262 36.489 73.341 43.161" style="stroke: none; stroke-width: 1; stroke-dasharray: none; stroke-linecap: butt; stroke-linejoin: miter; stroke-miterlimit: 10; fill: rgb(255,255,255); fill-rule: nonzero; opacity: 1;" transform=" matrix(1 0 0 1 0 0) " stroke-linecap="round"/>
	<path d="M 22.393 63.952 c 2.353 0.776 4.89 -0.503 5.666 -2.856 c 0.125 -0.378 0.199 -0.772 0.219 -1.17 c 0.21 -4.004 3.626 -7.08 7.63 -6.87 c 0.425 0.022 0.848 0.082 1.262 0.178 c 3.342 0.776 6.68 -1.304 7.456 -4.645 c 0.206 -0.886 0.214 -1.806 0.026 -2.695 c 1.898 5.649 -1.054 11.782 -6.653 13.823 c 0.019 0.08 0.034 0.16 0.045 0.241 c 5.705 -2.057 8.746 -8.271 6.871 -14.038 c 4.27 6.788 2.229 15.751 -4.559 20.021 C 34.637 69.541 27.189 68.716 22.393 63.952" style="stroke: none; stroke-width: 1; stroke-dasharray: none; stroke-linecap: butt; stroke-linejoin: miter; stroke-miterlimit: 10; fill: rgb(255,255,255); fill-rule: nonzero; opacity: 1;" transform=" matrix(1 0 0 1 0 0) " stroke-linecap="round"/>
	<path d="M 55.42 72.065 c 1.465 -1.998 1.033 -4.806 -0.966 -6.271 c -0.321 -0.236 -0.673 -0.427 -1.045 -0.57 c -3.743 -1.437 -5.613 -5.636 -4.176 -9.379 c 0.153 -0.397 0.34 -0.781 0.56 -1.145 c 1.771 -2.938 0.824 -6.756 -2.114 -8.527 c -0.779 -0.469 -1.651 -0.762 -2.555 -0.857 c 5.959 -0.059 10.88 4.643 11.091 10.599 c 0.082 0.007 0.163 0.017 0.243 0.031 c -0.194 -6.061 -5.164 -10.874 -11.228 -10.873 c 7.775 -1.963 15.669 2.748 17.633 10.523 C 64.518 62.148 61.432 68.976 55.42 72.065" style="stroke: none; stroke-width: 1; stroke-dasharray: none; stroke-linecap: butt; stroke-linejoin: miter; stroke-miterlimit: 10; fill: rgb(255,255,255); fill-rule: nonzero; opacity: 1;" transform=" matrix(1 0 0 1 0 0) " stroke-linecap="round"/>
	<path d="M 19.903 30.036 c -0.011 2.478 1.989 4.495 4.467 4.506 c 0.399 0.002 0.796 -0.05 1.18 -0.153 c 3.873 -1.038 7.854 1.261 8.891 5.134 c 0.11 0.411 0.184 0.831 0.221 1.256 c 0.294 3.418 3.304 5.95 6.722 5.656 c 0.906 -0.078 1.784 -0.354 2.571 -0.808 c -4.786 3.551 -11.531 2.639 -15.203 -2.055 c -0.07 0.043 -0.142 0.082 -0.215 0.117 c 3.719 4.79 10.569 5.762 15.474 2.197 c -5.136 6.158 -14.292 6.987 -20.45 1.851 C 18.371 43.406 16.854 36.068 19.903 30.036" style="stroke: none; stroke-width: 1; stroke-dasharray: none; stroke-linecap: butt; stroke-linejoin: miter; stroke-miterlimit: 10; fill: rgb(255,255,255); fill-rule: nonzero; opacity: 1;" transform=" matrix(1 0 0 1 0 0) " stroke-linecap="round"/>
	<polygon points="43.87,27.76 44.81,26.17 43.12,26.91 41.89,25.53 42.07,27.36 40.38,28.1 42.18,28.5 42.36,30.34 43.29,28.75 45.1,29.14 " style="stroke: none; stroke-width: 1; stroke-dasharray: none; stroke-linecap: butt; stroke-linejoin: miter; stroke-miterlimit: 10; fill: rgb(238,28,37); fill-rule: nonzero; opacity: 1;" transform="  matrix(1 0 0 1 0 0) "/>
	<polygon points="60.96,39.28 62.76,39.68 61.54,38.3 62.47,36.7 60.78,37.44 59.55,36.06 59.73,37.9 58.04,38.64 59.84,39.03 60.02,40.87 " style="stroke: none; stroke-width: 1; stroke-dasharray: none; stroke-linecap: butt; stroke-linejoin: miter; stroke-miterlimit: 10; fill: rgb(238,28,37); fill-rule: nonzero; opacity: 1;" transform="  matrix(1 0 0 1 0 0) "/>
	<polygon points="36.49,60.21 37.43,58.62 35.74,59.36 34.51,57.98 34.69,59.81 33,60.55 34.8,60.95 34.98,62.79 35.92,61.2 37.72,61.59 " style="stroke: none; stroke-width: 1; stroke-dasharray: none; stroke-linecap: butt; stroke-linejoin: miter; stroke-miterlimit: 10; fill: rgb(238,28,37); fill-rule: nonzero; opacity: 1;" transform="  matrix(1 0 0 1 0 0) "/>
	<polygon points="56.98,58.35 57.91,56.76 56.22,57.5 55,56.12 55.17,57.95 53.48,58.69 55.28,59.09 55.46,60.93 56.4,59.34 58.2,59.73 " style="stroke: none; stroke-width: 1; stroke-dasharray: none; stroke-linecap: butt; stroke-linejoin: miter; stroke-miterlimit: 10; fill: rgb(238,28,37); fill-rule: nonzero; opacity: 1;" transform="  matrix(1 0 0 1 0 0) "/>
	<polygon points="28.39,41.31 29.33,39.72 27.64,40.45 26.41,39.07 26.59,40.91 24.9,41.65 26.7,42.05 26.88,43.88 27.82,42.29 29.62,42.69 " style="stroke: none; stroke-width: 1; stroke-dasharray: none; stroke-linecap: butt; stroke-linejoin: miter; stroke-miterlimit: 10; fill: rgb(238,28,37); fill-rule: nonzero; opacity: 1;" transform="  matrix(1 0 0 1 0 0) "/>
</g>
</svg>