<svg xmlns="http://www.w3.org/2000/svg" width="24" height="24" viewBox="0 0 1024 1024"><path d="M809.8 203.4c-28.8-32.3-98.3-98.6-196.4-113.8-36-5.4-72.6 5.8-101.4 29.1C483.2 96.8 446.6 85.5 410.4 91c-127.5 19.7-207.7 126.9-211 131.6-12.6 17.1-8.8 41.2 8.2 53.7a38.2 38.2 0 0 0 22.7 7.4c11.8 0 23.5-5.4 31-15.6 0.6-0.9 64.3-86.3 160.8-101.2 11.9-1.5 24 1.1 34.5 7.2L363.5 269.1c-19.8 19.7-32.2 44.6-32.1 74.1 0 28 10.9 54.3 30.6 74.1 21.2 19.9 47.4 29.3 75.4 29.3s54.3-10.9 74.1-30.7l18.2-18.2 198.7 161.4c3.7 3 4.2 8.4 0.8 12.8l-44.3 57.2c-3 3.6-8.4 4.2-11.4 1.7l-35.6-29.9-41.9 44.4c-3.8 4.6-8.6 5.7-11 5.9-2.6 0.2-7.3 0.2-10.9-2.7l-51.9-44.3L497.1 627.7l-4.5 4.7c-9.4 11.5-22.5 18.7-37.2 20.1-15.2 1.3-29.2-2.8-39.2-10.8L272.5 511.7H153.6V205.3H0v408.9l102.4 0.1c18.8 0 34.5-10.7 43.4-25.8h97l123.3 111.4C389.9 719.4 419 729.6 449.3 729.6c4.6 0 9.2-0.2 13.8-0.7 21.8-2.2 42.3-9.7 60-21.6l1.4 1.3c19.2 15.8 43.6 23.1 68.3 20.4 21.1-2.2 40.4-11.3 54.3-24.5 33.7 13.1 73.7 3.8 98-26.4l44.3-57.2c29.6-36.5 24-90.4-12.6-120l-192.4-156.4 13.4-13.4c15-15 15-39.3 0-54.3-15-15-39.3-15-54.3 0L457.3 362.9c-10.6 10.7-29 10.7-39.5 0-5.3-5.3-8.2-12.3-8.2-19.7 0-7.5 2.9-14.5 8.4-20.1l137.5-140.2c12.5-12.6 29.6-18.8 46.3-16 95.6 14.8 160.3 100.4 160.9 101.2 4.9 6.6 11.6 11.1 19 13.4H870.4v280.2c0 28.3 22.9 51.3 49.8 51.3L1024 614.4V205l-214.2-1.6zM76.8 563.2c-14 0-25.6-11.6-25.6-25.6 0-14.2 11.6-25.6 25.6-25.6s25.6 11.5 25.6 25.8c0 13.9-11.6 25.4-25.6 25.4z m870.4 0c-14 0-25.6-11.6-25.6-25.6 0-14.2 11.6-25.6 25.6-25.6s25.6 11.4 25.6 25.6c0 14.1-11.5 25.6-25.6 25.6z"></path></svg>