<svg xmlns="http://www.w3.org/2000/svg" width="24" height="24" viewBox="0 0 1024 1024"><path d="M361.2 481.8c48.3-48.3 132.7-48.3 181 0l30.1 30.2 60.4-60.3-30.2-30.2c-40.2-40.3-93.8-62.5-150.8-62.5s-110.6 22.2-150.9 62.5L210.3 512a213.7 213.7 0 0 0 0 301.7 212.6 212.6 0 0 0 150.8 62.4A212.6 212.6 0 0 0 512 813.7l30.2-30.2-60.4-60.3-30.1 30.2a128.3 128.3 0 0 1-181.1 0 128.2 128.2 0 0 1 0-181.1l90.6-90.5z"></path><path d="M512 210.3l-30.2 30.2 60.4 60.3 30.1-30.2a128.3 128.3 0 0 1 181.1 0 128.2 128.2 0 0 1 0 181.1l-90.6 90.5c-48.3 48.3-132.7 48.3-181 0L451.7 512l-60.4 60.3 30.2 30.2c40.2 40.3 93.8 62.5 150.8 62.5s110.6-22.2 150.9-62.5L813.7 512a213.7 213.7 0 0 0 0-301.7 213.6 213.6 0 0 0-301.7 0z"></path></svg>