<svg xmlns="http://www.w3.org/2000/svg" width="24" height="24" viewBox="0 0 1024 1024"><path d="M1024 160c0 36-28.6 69.2-76.8 96-58.2 32.2-144.8 55-244.6 61.8-7.2-3.4-14.8-6.8-22.4-10C601.2 274.8 496.4 256 384 256c-16.6 0-32.8 0.4-49 1.2l-2.2-1.2C284.6 229.2 256 196 256 160c0-88.4 170.2-160 384-160 212 0 384 71.6 384 160z m-702.6 162.2c20.4-1.4 41.2-2.2 62.6-2.2 124.4 0 234.8 24.6 305 62.8 49.6 27 79 60.6 79 97.2 0 6.2-1.4 15.8-4.2 23.4-9.2 26.4-35.6 50.6-70 71.2-0.2 0-0.6 0.2-0.8 0.4-0.6 0.4-1.2 0.6-1.8 1-70 38.8-181.6 64-307.2 64-119.2 0-225.9-22.6-296.3-58.2-3.7-2-7.4-5.6-10.9-5.8C28.6 549.2 0 516 0 480c0-69.6 106.9-129 256-150.8 21-3.2 42.8-5.6 65.4-7z m462.4 51c56.6-8.8 108.4-22.8 152.4-41 32.6-13.6 62.8-30.4 87.8-51V352c0 38.6-33 74.2-87.6 101.8-29.4 14.8-64.8 27.2-104.8 36.8 0.2-3.4 0.4-7 0.4-10.6 0-43.8-21.2-79.8-48.2-106.8zM768 672c0 36-28.6 69.2-76.8 96-3.6 0.2-7.2 3.8-10.8 5.8C609.8 809.4 503.2 832 384 832c-125.6 0-237.2-25.2-307.2-64C28.6 741.2 0 708 0 672v-70.8c24.9 20.6 55.2 37.4 87.9 51C166.9 685.2 271.6 704 384 704c112.4 0 217.2-18.8 296.2-51.8 15.6-6.4 30.6-13.8 44.8-21.8 12.2-6.8 23.6-14.4 34.4-22.4 3-2.2 5.8-4.6 8.6-6.8V672z m64-115.8c36.2-10 73-19 104.2-32 32.6-13.6 62.8-30.4 87.8-51V544c0 21-10 42-29.8 61.8-32.6 32.6-90 59.4-162.6 76.8 0.2-3.4 0.4-7 0.4-10.6v-115.8zM384 896c112.4 0 217.2-18.8 296.2-51.8 32.6-13.6 62.8-30.4 87.8-51V864c0 88.4-172 160-384 160C171.9 1024 0 952.4 0 864v-70.8c24.9 20.6 55.2 37.4 87.9 51C166.9 877.2 271.6 896 384 896z"></path></svg>