<svg xmlns="http://www.w3.org/2000/svg" width="24" height="24" viewBox="0 0 1024 1024"><path d="M126.6 422.7c0 27.2 12.2 53.3 31.4 72.5l81.7 81.8c13.3 13.3 34.1 15.2 49.6 4.9 20.6-13.9 23.5-43 6.1-60.6l-75.6-75.5c-20-20-20-52.3 0-72.4s52.3-20 72.4 0l116.1 116c33.6 33.6 52.5 79.2 52.5 126.8V742.4c0 42.4-34.4 76.8-76.8 76.8h-106.7c-27.2 0-53.3-10.7-72.5-29.9l-159.8-159.9C16.2 600.6 0 560.2 0 520.8V166.4c0-35.3 28.7-64 64-64s64 28.7 64 64l-1.4 256.3zM896 166.4c0-35.3 28.6-64 64-64s64 28.7 64 64v354.4c0 39.4-16.2 79.8-45 108.6L819.2 789.3c-20.6 19.2-45.3 29.9-72.5 29.9H640c-42.4 0-76.8-34.4-76.8-76.8v-126.2c0-47.5 18.9-93.1 52.5-126.8l116.1-116c20-20 52.3-20 72.4 0s20 52.3 0 72.4l-75.6 75.5c-17.4 17.6-14.6 46.7 6.1 60.6 15.5 10.2 36.3 8.3 49.6-4.9l81.8-81.8c19.2-19.2 29.9-45.3 29.9-72.5V166.4z"></path></svg>