<svg xmlns="http://www.w3.org/2000/svg" width="24" height="24" viewBox="0 0 1024 1024"><path d="M554.7 334.1c36.3-12.8 65.3-41.8 78-78.1H768l-128 298.7c0 70.8 67 128 149.3 128s149.3-57.2 149.4-128l-128-298.7h85.3V170.7h-263.3c-17.5-49.9-64.9-85.3-120.7-85.4s-103.3 35.4-120.7 85.4H128v85.3h85.3l-128 298.7c0 70.8 67 128 149.4 128S384 625.5 384 554.7L256 256h135.3c12.8 36.3 41.8 65.3 78 78.1V810.7H85.3v85.3h853.4v-85.3h-384V334.1zM869.1 554.7h-159.6l79.8-186.1L869.1 554.7z m-554.6 0H154.9L234.7 368.6 314.5 554.7zM512 256c-23.5 0-42.7-19.2-42.7-42.7s19.2-42.7 42.7-42.6 42.7 19.2 42.7 42.6-19.2 42.7-42.7 42.7z"></path></svg>