<svg xmlns="http://www.w3.org/2000/svg" width="24" height="24" viewBox="0 0 1024 1024"><path d="M896 170.7H128a42.7 42.7 0 0 0-42.7 42.6v597.4a42.7 42.7 0 0 0 42.7 42.6h768a42.7 42.7 0 0 0 42.7-42.6V213.3a42.7 42.7 0 0 0-42.7-42.6z m-42.7 469.3a128 128 0 0 0-128 128H298.7a128 128 0 0 0-128-128V384a128 128 0 0 0 128-128h426.6a128 128 0 0 0 128 128v256z"></path><path d="M512 341.3c-94.1 0-170.7 76.5-170.7 170.7s76.5 170.7 170.7 170.7 170.7-76.5 170.7-170.7-76.5-170.7-170.7-170.7z m0 256c-47.1 0-85.3-38.3-85.3-85.3s38.3-85.3 85.3-85.3 85.3 38.3 85.3 85.3-38.3 85.3-85.3 85.3z"></path></svg>