<svg xmlns="http://www.w3.org/2000/svg" width="24" height="24" viewBox="0 0 1024 1024"><path d="M1010.1 597.9c-23.3-31.7-67.8-38.5-99.4-15.1l-212.8 156.8h-214.4c-15.6 0-26.8-12.9-26.8-28.5 0-15.6 12.9-28.4 26.8-28.4h139.1c26.8 0 54.7-19.3 59.3-47.3 5.8-35.6-21.5-66.5-56.2-66.5H339.7c-46.4 0-94.4 16.4-131.7 46.7l-82.7 67.1-98.5-1.6C12.9 681.1 0 695.6 0 711.1v170.6C0 897.4 12.9 910.2 26.8 910.2h615.3c39.2 0 78.1-12.8 109.7-36L992 697.3c34.7-23.3 41.4-67.8 18.1-99.4zM496.5 311.1c-13.5-2-31.3-8.4-46.9-14l-8.7-3.1c-22.2-9.4-46.6 3.7-54.4 24.4s3.8 46.6 25.9 54.5l8.3 2.9c15.1 5.4 31.8 10.8 48.7 14.8V412.4c0 23.6 19.1 42.7 42.6 42.7s42.7-19.1 42.7-42.7v-18.4c44.9-10.2 76.2-38.8 81.9-81.3 15.4-89-69.1-113.2-114.5-126.2l-9.4-3.2c-46.8-13.3-44.1-19-42.8-26.3 2.1-12 27.2-17.9 57.2-13.1 8.8 1.4 20.2 4.5 35 9.6 22.3 7.6 46.6-4.1 54.2-26.4s-4.1-46.6-26.4-54.3c-13.5-4.7-24.7-7.7-35.2-10.1V42.7c0-23.6-19.1-42.7-42.7-42.7s-42.6 19.1-42.6 42.7v18.7c-44.9 10.2-76.3 38.6-85.2 81.1-13.7 87.9 72.2 113.2 104.5 122.7l11.6 3.4c56.3 16.1 55.4 21.1 53.9 29.6C552.2 310.2 527.1 316.1 496.5 311.1z"></path></svg>