<svg xmlns="http://www.w3.org/2000/svg" xml:space="preserve" width="32px" height="32px" version="1.1" style="shape-rendering:geometricPrecision; text-rendering:geometricPrecision; image-rendering:optimizeQuality; fill-rule:evenodd; clip-rule:evenodd"
viewBox="0 0 73.88 73.88"
 xmlns:xlink="http://www.w3.org/1999/xlink">
 <defs>
  <style type="text/css">
   <![CDATA[
    .str0 {stroke:#BA4F41;stroke-width:0.55;stroke-miterlimit:22.9256}
    .fil0 {fill:none}
    .fil2 {fill:none;fill-rule:nonzero}
    .fil1 {fill:#BA4F41;fill-rule:nonzero}
   ]]>
  </style>
 </defs>
  <circle class="fil0" cx="36.94" cy="36.94" r="36.94"/>
  <path class="fil1" d="M37.08 70.27c-1.27,0 -2.17,-0.37 -2.69,-1.11 -0.53,-0.73 -0.79,-1.55 -0.79,-2.45 0,-1.18 0.33,-2.3 0.99,-3.34 1.44,-2.27 3.24,-4.65 5.39,-7.14 2.16,-2.49 4.41,-4.98 6.76,-7.46 2.35,-2.49 4.49,-4.85 6.43,-7.07 -1.33,-0.15 -2.74,-0.22 -4.23,-0.22 -3.76,0 -7.85,0.4 -12.27,1.21 -1.39,0.24 -2.67,0.51 -3.86,0.82 -1.19,0.31 -2.25,0.46 -3.19,0.46 -0.61,0 -1.11,-0.1 -1.49,-0.28 -0.17,-0.1 -0.38,-0.28 -0.63,-0.54 -0.24,-0.26 -0.37,-0.58 -0.37,-0.96 0,-0.52 0.5,-1.12 1.49,-1.81 1,-0.69 2.96,-1.27 5.89,-1.74 1.94,-0.29 4.26,-0.43 6.97,-0.43 2.26,0 4.6,0.12 7,0.36 2.41,0.23 4.55,0.61 6.43,1.14 2.1,-2.52 3.62,-4.71 4.56,-6.58 0.94,-1.87 1.41,-3.47 1.41,-4.8 0,-2.13 -1.04,-3.62 -3.11,-4.47 -2.07,-0.86 -4.71,-1.28 -7.92,-1.28 -2.04,0 -4.24,0.13 -6.59,0.39 -2.35,0.26 -4.74,0.63 -7.17,1.1 -0.5,0.09 -1.61,0.32 -3.32,0.67 -1.71,0.36 -3.75,0.81 -6.1,1.35 -2.34,0.55 -4.76,1.18 -7.25,1.89 -2.49,0.71 -4.82,1.47 -7.01,2.27 -2.18,0.81 -3.95,1.65 -5.3,2.53 -1.36,0.87 -2.04,1.76 -2.04,2.66 0,0.76 0.61,1.49 1.83,2.2 0.11,0.1 0.16,0.17 0.16,0.22 0,0.09 -0.13,0.14 -0.41,0.14 -0.33,0 -0.64,-0.07 -0.91,-0.21 -1.61,-0.95 -2.41,-2.33 -2.41,-4.13 0,-1.32 0.53,-2.72 1.58,-4.19 1.05,-1.47 2.68,-2.72 4.89,-3.77 2.82,-1.37 5.97,-2.61 9.45,-3.73 3.49,-1.11 7.09,-2.06 10.82,-2.84 3.74,-0.78 7.4,-1.37 10.99,-1.78 3.59,-0.4 6.94,-0.6 10.03,-0.6 4.09,0 7.32,0.35 9.66,1.06 2.35,0.72 4.03,1.69 5.02,2.92 1,1.23 1.49,2.6 1.49,4.12 0,2.04 -0.7,4.19 -2.11,6.47 -1.41,2.27 -2.97,4.31 -4.69,6.11 -0.44,0.47 -0.91,0.97 -1.41,1.49 -0.49,0.52 -1.05,1.07 -1.65,1.64 0.83,0.38 1.57,0.85 2.23,1.42 0.39,0.43 0.59,0.78 0.59,1.07 0,0.33 -0.23,0.49 -0.67,0.49 -0.33,0 -0.72,-0.12 -1.16,-0.35 -0.39,-0.24 -0.79,-0.43 -1.2,-0.57 -0.42,-0.14 -0.87,-0.29 -1.37,-0.43 -1.55,1.61 -3.21,3.31 -4.97,5.08 -1.77,1.78 -3.46,3.52 -5.06,5.23 -1.61,1.7 -3.04,3.29 -4.31,4.76 -0.72,0.85 -1.52,1.8 -2.41,2.84 -0.88,1.05 -1.64,2.14 -2.28,3.27 -0.63,1.14 -0.95,2.3 -0.95,3.49 0,0.66 0.14,1.25 0.41,1.77 0.28,0.52 0.83,0.78 1.66,0.78 0.39,0 0.83,-0.07 1.33,-0.21l0.33 -0.07c0.22,0 0.33,0.07 0.33,0.21 0,0.24 -0.22,0.43 -0.66,0.57 -0.94,0.24 -1.66,0.36 -2.16,0.36z"/>
  <path id="_1" class="fil2 str0" d="M37.08 70.27c-1.27,0 -2.17,-0.37 -2.69,-1.11 -0.53,-0.73 -0.79,-1.55 -0.79,-2.45 0,-1.18 0.33,-2.3 0.99,-3.34 1.44,-2.27 3.24,-4.65 5.39,-7.14 2.16,-2.49 4.41,-4.98 6.76,-7.46 2.35,-2.49 4.49,-4.85 6.43,-7.07 -1.33,-0.15 -2.74,-0.22 -4.23,-0.22 -3.76,0 -7.85,0.4 -12.27,1.21 -1.39,0.24 -2.67,0.51 -3.86,0.82 -1.19,0.31 -2.25,0.46 -3.19,0.46 -0.61,0 -1.11,-0.1 -1.49,-0.28 -0.17,-0.1 -0.38,-0.28 -0.63,-0.54 -0.24,-0.26 -0.37,-0.58 -0.37,-0.96 0,-0.52 0.5,-1.12 1.49,-1.81 1,-0.69 2.96,-1.27 5.89,-1.74 1.94,-0.29 4.26,-0.43 6.97,-0.43 2.26,0 4.6,0.12 7,0.36 2.41,0.23 4.55,0.61 6.43,1.14 2.1,-2.52 3.62,-4.71 4.56,-6.58 0.94,-1.87 1.41,-3.47 1.41,-4.8 0,-2.13 -1.04,-3.62 -3.11,-4.47 -2.07,-0.86 -4.71,-1.28 -7.92,-1.28 -2.04,0 -4.24,0.13 -6.59,0.39 -2.35,0.26 -4.74,0.63 -7.17,1.1 -0.5,0.09 -1.61,0.32 -3.32,0.67 -1.71,0.36 -3.75,0.81 -6.1,1.35 -2.34,0.55 -4.76,1.18 -7.25,1.89 -2.49,0.71 -4.82,1.47 -7.01,2.27 -2.18,0.81 -3.95,1.65 -5.3,2.53 -1.36,0.87 -2.04,1.76 -2.04,2.66 0,0.76 0.61,1.49 1.83,2.2 0.11,0.1 0.16,0.17 0.16,0.22 0,0.09 -0.13,0.14 -0.41,0.14 -0.33,0 -0.64,-0.07 -0.91,-0.21 -1.61,-0.95 -2.41,-2.33 -2.41,-4.13 0,-1.32 0.53,-2.72 1.58,-4.19 1.05,-1.47 2.68,-2.72 4.89,-3.77 2.82,-1.37 5.97,-2.61 9.45,-3.73 3.49,-1.11 7.09,-2.06 10.82,-2.84 3.74,-0.78 7.4,-1.37 10.99,-1.78 3.59,-0.4 6.94,-0.6 10.03,-0.6 4.09,0 7.32,0.35 9.66,1.06 2.35,0.72 4.03,1.69 5.02,2.92 1,1.23 1.49,2.6 1.49,4.12 0,2.04 -0.7,4.19 -2.11,6.47 -1.41,2.27 -2.97,4.31 -4.69,6.11 -0.44,0.47 -0.91,0.97 -1.41,1.49 -0.49,0.52 -1.05,1.07 -1.65,1.64 0.83,0.38 1.57,0.85 2.23,1.42 0.39,0.43 0.59,0.78 0.59,1.07 0,0.33 -0.23,0.49 -0.67,0.49 -0.33,0 -0.72,-0.12 -1.16,-0.35 -0.39,-0.24 -0.79,-0.43 -1.2,-0.57 -0.42,-0.14 -0.87,-0.29 -1.37,-0.43 -1.55,1.61 -3.21,3.31 -4.97,5.08 -1.77,1.78 -3.46,3.52 -5.06,5.23 -1.61,1.7 -3.04,3.29 -4.31,4.76 -0.72,0.85 -1.52,1.8 -2.41,2.84 -0.88,1.05 -1.64,2.14 -2.28,3.27 -0.63,1.14 -0.95,2.3 -0.95,3.49 0,0.66 0.14,1.25 0.41,1.77 0.28,0.52 0.83,0.78 1.66,0.78 0.39,0 0.83,-0.07 1.33,-0.21l0.33 -0.07c0.22,0 0.33,0.07 0.33,0.21 0,0.24 -0.22,0.43 -0.66,0.57 -0.94,0.24 -1.66,0.36 -2.16,0.36z"/>
</svg>