<svg xmlns="http://www.w3.org/2000/svg" width="1em" height="1em" fill="currentcolor" viewBox="0 0 1024 1024"><path d="M640 960h-96a64.1 64.1 0 0 1-64-64v-160h64v160h96v-160h64v-128a32 32 0 0 0-32-32h-279l-64-192H128a32 32 0 0 0-32 32v192h64v288h128v-224h64v224a64.1 64.1 0 0 1-64 64H160a64.1 64.1 0 0 1-64-64v-224a64.1 64.1 0 0 1-64-64v-192a96.1 96.1 0 0 1 96-96h201a63.9 63.9 0 0 1 60.7 43.7L439 512H672a96.1 96.1 0 0 1 96 96v128a64.1 64.1 0 0 1-64 64v96a64.1 64.1 0 0 1-64 64z m256 0h-64V608h96v-192a32 32 0 0 0-32-32h-128v-64h128a96.1 96.1 0 0 1 96 96v192a64.1 64.1 0 0 1-64 64h-32zM224 288a128 128 0 1 1 128-128 128.2 128.2 0 0 1-128 128z m0-192a64 64 0 1 0 64 64 64.1 64.1 0 0 0-64-64z m576 192a128 128 0 1 1 128-128 128.2 128.2 0 0 1-128 128z m0-192a64 64 0 1 0 64 64 64.1 64.1 0 0 0-64-64z"></path><path d="M592 480a112 112 0 1 1 112-112 112.1 112.1 0 0 1-112 112Zm0-160a48 48 0 1 0 48 48 48.1 48.1 0 0 0-48-48Z"></path></svg>