<svg xmlns="http://www.w3.org/2000/svg" viewBox="0 0 1152 1024" fill="currentColor"><path d="M1139.8 882.2c-1-0.8-45.2-48.4-75.8-109.8 55-54.2 88-122.2 88-196.4 0-160-153-292.2-352.4-315.8-62.8-115.2-211-196.2-383.6-196.2-229.8 0-416 143.2-416 320 0 74 33 142 88 196.4-30.6 61.4-74.6 109-75.4 109.8-12.6 13.4-16.2 33-8.8 50 7.2 17 24 28 42.4 28 107 0 193.4-40.4 250.4-77.6 18.2 4.2 36.8 7.4 56 9.6 63 115 211 196 383.6 196 41.6 0 81.6-4.8 119.6-13.6 57 37 143.2 77.6 250.4 77.6 18.4 0 35-11 42.4-28 7.2-17 3.8-36.6-8.8-50zM310.8 628l-26.4-6-22.8 14.8c-40.2 26.2-101 56.4-175.4 65 17.6-22.6 40.4-55.2 59-92.8l20.8-41.6-33-32.6c-31.6-31-69-82.4-69-150.8 0-141.2 158-256 352-256s352 114.8 352 256-158 256-352 256c-35.4 0-70.8-4-105.2-12zM890.4 828.8l-22.8-14.8-26.4 6.2c-34.4 8-69.8 12-105.2 12-130.2 0-244-51.8-304.8-128.6 222.6-6.4 400.8-146.8 400.8-319.6 0-19-2.6-37.4-6.6-55.4 150.8 29 262.6 128.8 262.6 247.4 0 68.4-37.4 119.8-69 150.8l-33 32.6 20.6 41.4c18.8 37.8 41.6 70.4 59 92.8-74.2-8.4-135-38.8-175.2-64.8z"></path></svg>