<svg xmlns="http://www.w3.org/2000/svg" viewBox="0 0 1280 1024" width="1280" height="1024" fill="#fa0"><path d="M1072 960h-864c-8.8 0-16 7.2-16 16v32c0 8.8 7.2 16 16 16h864c8.8 0 16-7.2 16-16v-32c0-8.8-7.2-16-16-16zM1168 320c-61.8 0-112 50.2-112 112 0 15.2 3 29.6 8.6 42.8l-112.6 67.6c-10.4 6.2-21.6 9.2-32.8 9.2-22.2 0-43.8-11.6-55.6-32.2l-148.8-260.4c22.6-20.6 37.2-50 37.2-83 0-61.8-50.2-112-112-112s-112 50.2-112 112c0 33 14.6 62.4 37.2 82.8l-148.8 260.4c-11.8 20.8-33.4 32.2-55.6 32.2-11.2 0-22.6-3-32.8-9.2l-112.6-67.6c5.4-13.2 8.6-27.6 8.6-42.8 0-61.8-50.2-112-112-112s-112 50.4-112 112.2 50.2 112 112 112c4 0 7.8-0.8 11.6-1.2l132.4 353.2h768l132.4-353.2c3.8 0.4 7.6 1.2 11.6 1.2 61.8 0 112-50.2 112-112s-50.2-112-112-112zM640 128c26.4 0 48 21.6 48 48s-21.6 48-48 48-48-21.6-48-48 21.6-48 48-48zM112 480c-26.4 0-48-21.6-48-48s21.6-48 48-48 48 21.6 48 48-21.6 48-48 48zM979.6 832h-679.2l-112-298.8 106.8 64c20 12 42.6 18.2 65.8 18.2 45.8 0 88.4-24.8 111.2-64.6l151.2-264.6c5.6 0.8 11 1.6 16.8 1.6s11.2-0.8 16.8-1.6l151 264.8c22.8 39.8 65.4 64.4 111.2 64.4 23.2 0 45.8-6.4 65.8-18.2l106.8-64-112.2 298.8zM1168 480c-26.4 0-48-21.6-48-48s21.6-48 48-48 48 21.6 48 48-21.6 48-48 48z"></path></svg>
