<svg xmlns="http://www.w3.org/2000/svg" viewBox="0 0 1024 1024" width="1em" height="1em" class="gsbp-042189d"><path d="M460.7 122.3a76.8 76.8 0 0 1 102.7 0l273.8 246A445.8 445.8 0 0 0 749.6 358.4l-220.5-198.1a25.6 25.6 0 0 0-34.2 0l-281.6 253A25.6 25.6 0 0 0 204.8 432.4V793.6a25.6 25.6 0 0 0 25.6 25.6H460.8v25.6c0 8.9 0.9 17.4 2.6 25.6H230.4A76.8 76.8 0 0 1 153.6 793.6V432.4c0-21.8 9.2-42.5 25.5-57.1l281.6-253Zm352.3 293.4a331.3 331.3 0 0 1 57.3 15.4C932.2 454.1 972.8 493.3 972.8 537.6c0 70.7-103.2 128-230.4 128S512 608.3 512 537.6 615.2 409.6 742.4 409.6c24.6 0 48.4 2.2 70.7 6.1ZM742.4 716.8c70.7 0 137.1-15.8 187.8-43.9 15-8.3 29.6-18.4 42.7-30.2L972.8 844.8c0 70.7-103.2 128-230.4 128S512 915.5 512 844.8v-202c13.1 11.8 27.6 21.8 42.6 30.1 50.7 28.2 117.1 43.9 187.8 44Z"></path></svg>
