<svg xmlns="http://www.w3.org/2000/svg" viewBox="0 0 1024 1024" width="1em" height="1em" class="gsbp-c4b32bf"><path d="M460.7 122.3a76.8 76.8 0 0 1 102.7 0l281.6 253A76.8 76.8 0 0 1 870.4 432.4V481.3a152.6 152.6 0 0 0-51.2-18.5v-30.4a25.6 25.6 0 0 0-8.5-19.1l-281.6-253a25.6 25.6 0 0 0-34.2 0l-281.6 253A25.6 25.6 0 0 0 204.8 432.4V793.6a25.6 25.6 0 0 0 25.6 25.6H358.4a25.6 25.6 0 0 0 25.6-25.6V614.4A76.8 76.8 0 0 1 460.8 537.6h102.4a76.8 76.8 0 0 1 76.8 76.8v113a128.5 128.5 0 0 0-51.2 40.6v-153.6a25.6 25.6 0 0 0-25.6-25.6H460.8a25.6 25.6 0 0 0-25.6 25.6v179.2A76.8 76.8 0 0 1 358.4 870.4H230.4A76.8 76.8 0 0 1 153.6 793.6V432.4c0-21.8 9.2-42.5 25.5-57.1l281.6-253ZM896 614.4a102.4 102.4 0 1 1-204.8 0 102.4 102.4 0 0 1 204.8 0Zm76.8 230.4c0 63.7-51.2 128-179.2 128S614.4 908.8 614.4 844.8a76.8 76.8 0 0 1 76.8-76.8h204.8a76.8 76.8 0 0 1 76.8 76.8Z"></path></svg>
